<svg xmlns="http://www.w3.org/2000/svg" viewBox="0 0 96 96"><defs>
<linearGradient id="bs-shell" x1="0" y1="0" x2="0" y2="1"><stop offset="0" stop-color="#63B257"/><stop offset="1" stop-color="#3C8743"/></linearGradient>
<linearGradient id="bs-head" x1="0" y1="0" x2="0" y2="1"><stop offset="0" stop-color="#93CF72"/><stop offset="1" stop-color="#66B252"/></linearGradient>
<linearGradient id="bs-spike" x1="0" y1="0" x2="0" y2="1"><stop offset="0" stop-color="#FFD866"/><stop offset="1" stop-color="#F2A01D"/></linearGradient>
</defs>
  <!-- 尾巴 -->
  <path d="M80 74 Q92 72 90 62 Q86 60 82 64 Q84 70 78 71 Z" fill="url(#bs-shell)"/>
  <!-- 脚 -->
  <ellipse cx="32" cy="89" rx="12" ry="6.5" fill="#F2A01D"/>
  <ellipse cx="64" cy="89" rx="12" ry="6.5" fill="#F2A01D"/>
  <!-- 大壳 -->
  <ellipse cx="48" cy="60" rx="39" ry="31" fill="url(#bs-shell)"/>
  <!-- 壳边尖刺 -->
  <path d="M14 52 L8 40 L22 46 Z" fill="url(#bs-spike)"/>
  <path d="M82 52 L88 40 L74 46 Z" fill="url(#bs-spike)"/>
  <path d="M20 36 L17 23 L30 31 Z" fill="url(#bs-spike)"/>
  <path d="M76 36 L79 23 L66 31 Z" fill="url(#bs-spike)"/>
  <!-- 壳顶板纹 -->
  <path d="M22 58 Q48 44 74 58" stroke="#8FD07E" stroke-width="2.4" fill="none" opacity=".8"/>
  <path d="M26 70 Q48 58 70 70" stroke="#8FD07E" stroke-width="2.4" fill="none" opacity=".7"/>
  <path d="M48 34 L48 84" stroke="#8FD07E" stroke-width="2.2" opacity=".55"/>
  <!-- 肚皮 -->
  <ellipse cx="48" cy="66" rx="21" ry="22" fill="#FFF3D4"/>
  <!-- 手臂 -->
  <ellipse cx="24" cy="66" rx="8" ry="10" fill="url(#bs-head)"/>
  <ellipse cx="72" cy="66" rx="8" ry="10" fill="url(#bs-head)"/>
  <!-- 角 -->
  <path d="M30 20 L24 5 L38 15 Z" fill="#FFF4D6"/>
  <path d="M66 20 L72 5 L58 15 Z" fill="#FFF4D6"/>
  <!-- 头 -->
  <circle cx="48" cy="29" r="22" fill="url(#bs-head)"/>
  <!-- 眉毛（凶凶的） -->
  <path d="M31 22 L43 27" stroke="#4A3A28" stroke-width="4.2" stroke-linecap="round"/>
  <path d="M65 22 L53 27" stroke="#4A3A28" stroke-width="4.2" stroke-linecap="round"/>
  <!-- 眼睛 -->
  <ellipse cx="38" cy="31" rx="5" ry="5.6" fill="#fff"/>
  <ellipse cx="58" cy="31" rx="5" ry="5.6" fill="#fff"/>
  <circle cx="39" cy="32" r="2.5" fill="#2E2418"/>
  <circle cx="57" cy="32" r="2.5" fill="#2E2418"/>
  <!-- 吻部 -->
  <ellipse cx="48" cy="41" rx="13" ry="9" fill="#E9F2C8"/>
  <circle cx="43" cy="39.5" r="1.8" fill="#4A3A28"/>
  <circle cx="53" cy="39.5" r="1.8" fill="#4A3A28"/>
  <!-- 嘴 + 小尖牙 -->
  <path d="M41 45 Q48 41 55 45" stroke="#4A3A28" stroke-width="2.4" fill="none" stroke-linecap="round"/>
  <path d="M43 44.6 L45 49 L47 44.6 Z" fill="#fff"/>
  <path d="M49 44.6 L51 49 L53 44.6 Z" fill="#fff"/>
  <!-- 壳顶高光 -->
  <ellipse cx="34" cy="42" rx="10" ry="5" fill="#fff" opacity=".22" transform="rotate(-18 34 42)"/>
</svg>
