<svg xmlns="http://www.w3.org/2000/svg" viewBox="0 0 64 64"><defs><linearGradient id="g-white" x1="0" y1="0" x2="0" y2="1"><stop offset="0" stop-color="#FFFFFF"/><stop offset="1" stop-color="#E9EDF2"/></linearGradient><linearGradient id="g-red" x1="0" y1="0" x2="0" y2="1"><stop offset="0" stop-color="#FF8A7A"/><stop offset="1" stop-color="#E8564A"/></linearGradient><linearGradient id="g-graydk" x1="0" y1="0" x2="0" y2="1"><stop offset="0" stop-color="#B9C4CE"/><stop offset="1" stop-color="#7E8B98"/></linearGradient><linearGradient id="g-coral" x1="0" y1="0" x2="0" y2="1"><stop offset="0" stop-color="#FFA793"/><stop offset="1" stop-color="#F0705F"/></linearGradient></defs>
  <rect x="10" y="12" width="44" height="42" rx="8" fill="url(#g-white)"/>
  <path d="M10 20 Q10 12 18 12 L46 12 Q54 12 54 20 L54 24 L10 24 Z" fill="url(#g-red)"/>
  <rect x="18" y="6" width="4" height="10" rx="2" fill="url(#g-graydk)"/><rect x="42" y="6" width="4" height="10" rx="2" fill="url(#g-graydk)"/>
  <circle cx="20" cy="32" r="2.6" fill="#C9D2DA"/><circle cx="32" cy="32" r="2.6" fill="#C9D2DA"/><circle cx="44" cy="32" r="2.6" fill="#C9D2DA"/>
  <circle cx="20" cy="43" r="2.6" fill="#C9D2DA"/><circle cx="32" cy="43" r="2.6" fill="#C9D2DA"/>
  <circle cx="44" cy="43" r="4" fill="url(#g-coral)"/></svg>
